HIERARCHY
ROOT Hips
{
    OFFSET 0.000000 0.000000 0.000000
    CHANNELS 6 Xposition Yposition Zposition Zrotation Xrotation Yrotation
    JOINT Spine
    {
        OFFSET -0.000000 14.517291 0.000000
        CHANNELS 3 Zrotation Xrotation Yrotation
        JOINT Spine1
        {
            OFFSET -0.000000 37.558300 0.000000
            CHANNELS 3 Zrotation Xrotation Yrotation
            JOINT Neck
            {
                OFFSET -0.000000 37.404057 3.400369
                CHANNELS 3 Zrotation Xrotation Yrotation
                JOINT Head
                {
                    OFFSET -0.000000 24.785618 -3.540803
                    CHANNELS 3 Zrotation Xrotation Yrotation
                    End Site
                    {
                        OFFSET -0.000000 35.408028 0.000000
                    }
                }
            }
            JOINT LeftShoulder
            {
                OFFSET 6.992933 33.973492 -0.192664
                CHANNELS 3 Zrotation Xrotation Yrotation
                JOINT LeftArm
                {
                    OFFSET 21.527611 0.000000 0.000000
                    CHANNELS 3 Zrotation Xrotation Yrotation
                    JOINT LeftForeArm
                    {
                        OFFSET 56.353916 0.000000 0.000000
                        CHANNELS 3 Zrotation Xrotation Yrotation
                        JOINT LeftHand
                        {
                            OFFSET 47.774071 0.000000 0.000000
                            CHANNELS 3 Zrotation Xrotation Yrotation
                            End Site
                            {
                                OFFSET 26.556021 0.000000 0.000000
                            }
                        }
                    }
                }
            }
            JOINT RightShoulder
            {
                OFFSET -7.065357 33.973492 -0.192664
                CHANNELS 3 Zrotation Xrotation Yrotation
                JOINT RightArm
                {
                    OFFSET -21.527611 0.000000 0.000000
                    CHANNELS 3 Zrotation Xrotation Yrotation
                    JOINT RightForeArm
                    {
                        OFFSET -56.353916 0.000000 0.000000
                        CHANNELS 3 Zrotation Xrotation Yrotation
                        JOINT RightHand
                        {
                            OFFSET -47.774071 0.000000 0.000000
                            CHANNELS 3 Zrotation Xrotation Yrotation
                            End Site
                            {
                                OFFSET -26.556021 0.000000 0.000000
                            }
                        }
                    }
                }
            }
        }
    }
    JOINT LeftUpLeg
    {
        OFFSET 17.704014 0.000000 0.000000
        CHANNELS 3 Zrotation Xrotation Yrotation
        JOINT LeftLeg
        {
            OFFSET -0.000000 -81.181816 0.000000
            CHANNELS 3 Zrotation Xrotation Yrotation
            JOINT LeftFoot
            {
                OFFSET -0.000000 -62.821102 0.000000
                CHANNELS 3 Zrotation Xrotation Yrotation
                JOINT LeftToeBase
                {
                    OFFSET -0.000000 -11.507608 26.556021
                    CHANNELS 3 Zrotation Xrotation Yrotation
                    End Site
                    {
                        OFFSET -0.000000 0.000000 7.081605
                    }
                }
            }
        }
    }
    JOINT RightUpLeg
    {
        OFFSET -17.704014 0.000000 0.000000
        CHANNELS 3 Zrotation Xrotation Yrotation
        JOINT RightLeg
        {
            OFFSET -0.000000 -81.181816 0.000000
            CHANNELS 3 Zrotation Xrotation Yrotation
            JOINT RightFoot
            {
                OFFSET -0.000000 -62.821102 0.000000
                CHANNELS 3 Zrotation Xrotation Yrotation
                JOINT RightToeBase
                {
                    OFFSET -0.000000 -11.507608 26.556021
                    CHANNELS 3 Zrotation Xrotation Yrotation
                    End Site
                    {
                        OFFSET -0.000000 0.000000 7.081605
                    }
                }
            }
        }
    }
}
MOTION
Frames:    4
Frame Time:    0.008333
-20.226294    163.279434    -77.711716    -8.866822    -19.482944    42.094055    1.080483    4.555140    -5.804277    6.134237    5.998214    -2.244726    20.568033    -3.808427    0.734451    0.166371    3.362553    -3.008759    20.352789    -9.871773    -24.436375    -38.920235    -21.469727    -90.949799    29.778515    -65.091324    -83.607216    -26.637579    -42.976814    -44.264389    12.445061    8.418894    -6.928700    29.540396    17.151716    18.155895    -11.453435    5.229629    33.141815    -24.179131    1.335597    33.177399    22.801199    -1.523886    7.285365    -4.720953    36.782448    -16.249376    8.569884    -22.092194    35.117290    0.000000    0.000000    0.000000    -92.034584    -45.568565    -55.537663    7.535498    15.087372    -8.530197    21.744959    14.638612    -37.476673    0.000000    0.000000    0.000000    
-20.209282    163.278244    -77.715431    -8.865489    -19.480198    42.080631    1.093429    4.564725    -5.786492    6.116240    5.966334    -2.235952    20.573431    -3.797570    0.735344    0.193317    3.394163    -3.003850    20.429823    -9.946915    -24.446096    -38.924271    -21.502398    -90.873695    29.622219    -65.045372    -83.770821    -26.610100    -42.975185    -44.195843    12.463812    8.432724    -6.921945    29.554333    17.181322    18.156506    -11.539748    5.204252    33.199619    -24.227699    1.330434    33.163750    22.787334    -1.517688    7.305626    -4.697666    36.788654    -16.251276    8.563763    -22.094736    35.100380    0.000000    0.000000    0.000000    -92.036484    -45.601250    -55.491604    7.516190    15.090131    -8.473814    21.746820    14.664798    -37.458958    0.000000    0.000000    0.000000    
-20.193840    163.271912    -77.719292    -8.866517    -19.478649    42.068146    1.094324    4.571212    -5.768342    6.126401    5.944898    -2.229244    20.588200    -3.782495    0.734520    0.173972    3.407484    -3.006953    20.481031    -10.002665    -24.450062    -38.946980    -21.542967    -90.835091    29.508249    -64.992218    -83.855453    -26.642015    -42.926849    -44.193558    12.457449    8.449314    -6.911456    29.580688    17.224350    18.158636    -11.611404    5.151957    33.213772    -24.225393    1.312966    33.116375    22.778347    -1.523050    7.310908    -4.690596    36.815655    -16.257378    8.559886    -22.115507    35.109203    0.000000    0.000000    0.000000    -92.043701    -45.634010    -55.455502    7.501284    15.100666    -8.428769    21.736778    14.684564    -37.435162    0.000000    0.000000    0.000000    
-20.177551    163.265411    -77.721748    -8.867359    -19.486120    42.054657    1.093781    4.587728    -5.749080    6.154159    5.922383    -2.223035    20.564541    -3.779559    0.729003    0.194246    3.428570    -3.005449    20.514311    -10.057004    -24.453718    -38.931007    -21.564054    -90.786369    29.649887    -64.983116    -83.688667    -26.663692    -42.859623    -44.197071    12.443945    8.458267    -6.924005    29.586802    17.238796    18.195566    -11.627604    5.138042    33.221298    -24.233562    1.314566    33.063549    22.778627    -1.526426    7.288267    -4.710226    36.854427    -16.281450    8.583243    -22.120184    35.175644    0.000000    0.000000    0.000000    -92.037773    -45.667839    -55.402061    7.483190    15.117845    -8.365855    21.752224    14.660373    -37.408470    0.000000    0.000000    0.000000    
